Coordinates
version=1
nRows=6
nColumns=36
inDegrees=yes

Units are S.I. units (second, meters, Newtons, ...)
If the header above contains a line with 'inDegrees', this indicates whether rotational values are in degrees (yes) or radians (no).

endheader
time	pelvis_tilt	pelvis_list	pelvis_rotation	pelvis_tx	pelvis_ty	pelvis_tz	hip_flexion_r	hip_adduction_r	hip_rotation_r	knee_angle_r	knee_angle_r_beta	ankle_angle_r	subtalar_angle_r	mtp_angle_r	hip_flexion_l	hip_adduction_l	hip_rotation_l	knee_angle_l	knee_angle_l_beta	ankle_angle_l	subtalar_angle_l	mtp_angle_l	lumbar_extension	lumbar_bending	lumbar_rotation	arm_flex_r	arm_add_r	arm_rot_r	elbow_flex_r	pro_sup_r	arm_flex_l	arm_add_l	arm_rot_l	elbow_flex_l	pro_sup_l
      4.93333330	     -4.20190057	     -2.24144848	      6.99912310	      1.25127719	      1.13322380	      0.00963263	     11.58910204	      3.45072174	     -3.41132075	      5.27626465	      0.09208819	    -31.75652199	     -3.40483670	     -7.49999987	      7.28864442	     -3.64589433	      6.81330600	      0.56409840	      0.00984537	    -36.62871699	      3.24816910	     -7.49999987	      9.19848550	      5.18705406	      4.57318590	    -41.87409618	    -13.39320388	     -8.28825513	     61.45512276	     84.68324516	    -20.32796523	    -28.41070788	     88.74280978	     65.23474776	     75.33109129
      4.95000000	     -3.39049125	     -3.26918613	      7.83266170	      1.25687008	      1.09151757	      0.00628017	     11.45397177	      4.71108523	     -4.34052017	      5.19034389	      0.09058859	    -33.70056265	     -3.81316602	     -7.49999987	      6.77686293	     -4.43472387	      7.71241872	      0.76286160	      0.01331445	    -40.65518052	      3.37566382	     -7.49999987	      8.43086241	      6.18698017	      4.21239322	    -41.76100534	    -13.14789739	     -8.20339881	     63.50221391	     85.10607896	    -19.82851535	    -28.69204779	     88.19850820	     68.04589264	     75.70276186
      4.96666670	     -2.73349000	     -5.14093138	      8.89194893	      1.26407883	      1.03753757	      0.00322360	     12.05431202	      6.55968150	     -6.57280556	      6.17099581	      0.10770420	    -33.56171473	     -5.68614592	     -7.49999987	      5.43089676	     -5.48345110	      7.10272799	      0.95067746	      0.01659245	    -36.84616377	      2.07265400	     -7.49999987	      7.91033133	      8.25517675	      3.91227785	    -41.88968052	    -14.18091331	     -6.79155459	     66.95129393	     85.50995178	    -19.15352789	    -29.07405975	     87.55226785	     73.40986020	     76.20729514
      4.98333330	     -1.33446877	     -5.82776548	      9.06852448	      1.26713269	      0.99185222	      0.00325790	     12.20537940	      7.58924175	     -6.26583876	     10.20450780	      0.17810226	    -26.29609855	    -10.40802478	     -7.49999987	      3.95242999	     -5.88138622	      8.59256085	      2.21971173	      0.03874128	    -31.09557783	     -4.56903162	     -7.49999987	      6.51200920	      9.11265484	      3.89540902	    -39.20342038	    -15.93443561	     -3.69929941	     67.46859038	     94.50843666	    -18.38719199	    -28.38709880	     85.19013129	     77.41222018	     88.19723380
      5.00000000	      0.27202448	     -3.98692953	      8.37986271	      1.27913449	      0.96005779	     -0.00173416	     12.32572586	      5.92935706	     -4.24778948	     17.28905472	      0.30175093	    -12.63701828	    -14.76101203	     -7.49999987	      3.62370886	     -4.10686738	     13.39514035	      7.04548605	      0.12296693	    -23.71159613	    -16.83673586	     -7.49999987	      4.70239798	      7.00488074	      2.83632219	    -32.08973462	    -19.63520832	      4.53288980	     64.09396172	     93.17451660	    -19.64654309	    -25.48913661	     80.28082805	     78.84351203	     88.44105980
      5.01666670	      1.51091008	     -1.34888394	      7.83788802	      1.28275115	      0.92149591	      0.00131220	     14.57138784	      3.16115117	     -3.20771304	     28.15620283	      0.49141844	      3.68170501	    -16.94550545	     -7.49999987	      4.74445139	     -0.67557111	     18.21730059	     14.66185556	      0.25589765	    -15.86095224	    -29.33826169	     -7.49999987	      3.14388095	      4.08653800	      2.11533271	    -23.88341525	    -21.75586549	     12.52553194	     59.80010134	     94.07992091	    -18.83731502	    -22.87306472	     76.59054617	     80.59836509	     91.00268932
